<svg width="40" height="40" viewBox="0 0 40 40" fill="none" xmlns="http://www.w3.org/2000/svg">
<path d="M4.58301 34.6468H35.4163M9.96301 5.35352H21.5263C22.753 5.35352 23.9294 5.84079 24.7967 6.70815C25.6641 7.5755 26.1513 8.75189 26.1513 9.97852V34.6452H5.33801V9.97852C5.33801 8.75189 5.82528 7.5755 6.69264 6.70815C7.55999 5.84079 8.73638 5.35352 9.96301 5.35352Z" stroke="#00A7D4" stroke-width="3" stroke-linecap="round" stroke-linejoin="round"/>
<path d="M11.1201 11.522H20.3701M11.1201 17.6886H20.3701M26.1501 15.3753H29.2335C29.8411 15.3749 30.4429 15.4942 31.0044 15.7264C31.5659 15.9586 32.0762 16.2992 32.506 16.7288C32.9358 17.1583 33.2768 17.6683 33.5094 18.2296C33.742 18.791 33.8618 19.3927 33.8618 20.0003V34.647M14.2185 23.8553H17.3018C17.915 23.8557 18.5031 24.0993 18.9371 24.5327C19.371 24.966 19.6155 25.5537 19.6168 26.167V34.647H11.9068V26.167C11.9068 25.5539 12.1503 24.9659 12.5839 24.5324C13.0174 24.0989 13.6054 23.8553 14.2185 23.8553Z" stroke="#00A7D4" stroke-width="3" stroke-linecap="round" stroke-linejoin="round"/>
</svg>
