<svg width="40" height="40" viewBox="0 0 40 40" fill="none" xmlns="http://www.w3.org/2000/svg">
<path d="M17.153 3.99336C17.3597 4.20002 17.4963 4.41669 17.583 4.57669C17.7147 4.81836 17.813 5.07669 17.8913 5.31002C18.0413 5.75669 18.1947 6.35169 18.3697 7.03002L24.503 30.7634L27.183 20.6667L27.2047 20.5834L27.2097 20.565C27.283 20.2817 27.4047 19.8084 27.6813 19.41C27.9328 19.0435 28.2774 18.7507 28.6797 18.5617C28.998 18.4117 29.2947 18.3667 29.513 18.35C29.688 18.3334 29.8797 18.335 30.0263 18.335H34.9997C35.4417 18.335 35.8656 18.5106 36.1782 18.8232C36.4907 19.1357 36.6663 19.5597 36.6663 20.0017C36.6663 20.4437 36.4907 20.8676 36.1782 21.1802C35.8656 21.4928 35.4417 21.6684 34.9997 21.6684H30.3663L27.3597 32.9934C27.1797 33.67 27.023 34.2634 26.8697 34.71C26.7849 34.9624 26.6801 35.2076 26.5563 35.4434C26.3761 35.7793 26.1163 36.066 25.7997 36.2784C25.4075 36.5335 24.9494 36.6685 24.4815 36.6668C24.0137 36.665 23.5565 36.5265 23.1663 36.2684C22.8513 36.0533 22.5938 35.7643 22.4163 35.4267C22.2942 35.1903 22.1911 34.9445 22.108 34.6917C21.958 34.245 21.8047 33.65 21.6297 32.9717L15.4963 9.23836L12.8163 19.3334L12.7947 19.4167L12.7897 19.435C12.7163 19.7184 12.593 20.1917 12.318 20.59C12.0666 20.9565 11.7219 21.2493 11.3197 21.4384C11.0013 21.5884 10.7047 21.6334 10.4863 21.65C10.3113 21.6667 10.1197 21.665 9.97301 21.665H4.99967C4.55765 21.665 4.13372 21.4894 3.82116 21.1769C3.5086 20.8643 3.33301 20.4404 3.33301 19.9984C3.33301 19.5563 3.5086 19.1324 3.82116 18.8198C4.13372 18.5073 4.55765 18.3317 4.99967 18.3317H9.63301L12.6397 7.00502C12.8197 6.33002 12.9763 5.73502 13.1297 5.29169C13.2097 5.05836 13.3097 4.80002 13.443 4.55836C13.623 4.22178 13.8828 3.93449 14.1997 3.72169C14.6505 3.42786 15.1873 3.29468 15.7232 3.34368C16.2592 3.39267 16.7629 3.62265 17.153 3.99336Z" fill="#00A7D4"/>
</svg>
