<svg width="50" height="50" viewBox="0 0 50 50" fill="none" xmlns="http://www.w3.org/2000/svg">
<path d="M49.9965 25.0006C49.9965 37.627 40.6373 48.0655 28.4788 49.7594C27.342 49.9171 26.1789 49.9994 24.9982 49.9994C23.6354 49.9994 22.2972 49.8908 20.9939 49.6806C9.09123 47.7642 0 37.4431 0 25.0006C0 11.1935 11.1932 0 25 0C38.8068 0 50 11.1935 50 25.0006H49.9965Z" fill="#00A7D4"/>
<path d="M28.4784 20.0754V25.5215H35.2154L34.1486 32.8577H28.4784V49.7601C27.3416 49.9177 26.1785 50.0001 24.9978 50.0001C23.635 50.0001 22.2967 49.8915 20.9935 49.6813V32.8577H14.7803V25.5215H20.9935V18.858C20.9935 14.7239 24.3445 11.3711 28.4802 11.3711V11.3746C28.4924 11.3746 28.5029 11.3711 28.5152 11.3711H35.2171V17.7158H30.8379C29.5364 17.7158 28.4802 18.7721 28.4802 20.0737L28.4784 20.0754Z" fill="white"/>
</svg>
