<?xml version="1.0" encoding="UTF-8"?>
<svg version="1.1" xmlns="http://www.w3.org/2000/svg" width="512" height="512">
<path d="M0 0 C2.96666809 0.96739177 3.98254233 1.54297508 5.875 3.9375 C7.07117889 10.1980934 5.27184552 16.78524754 3.8125 22.86083984 C3.59013294 23.82196465 3.36776588 24.78308947 3.13866043 25.77333927 C2.39341443 28.98395332 1.63413586 32.1910817 0.875 35.3984375 C0.33378473 37.71829843 -0.20649318 40.03837822 -0.74591064 42.35865784 C-2.06598481 48.02772649 -3.39483924 53.69468515 -4.72725081 59.36086553 C-6.45359992 66.70525114 -8.16601114 74.05287456 -9.87792969 81.40063477 C-10.52382811 84.17238708 -11.1697801 86.94412691 -11.81573486 89.71586609 C-12.05879022 90.7589034 -12.05879022 90.7589034 -12.30675578 91.82301217 C-13.47883197 96.85218034 -14.65279266 101.88090661 -15.82733154 106.90950012 C-20.86783747 128.49424541 -25.86040556 150.08979987 -30.828125 171.69140625 C-31.00751303 172.47137718 -31.18690105 173.25134811 -31.37172508 174.05495453 C-33.69226758 184.14474917 -36.01120902 194.23491142 -38.32958984 204.32520294 C-39.8729217 211.04218443 -41.41662928 217.75907953 -42.96071911 224.47588682 C-43.29293334 225.92103111 -43.62512813 227.36617986 -43.95730305 228.81133318 C-45.69302955 236.36243845 -47.43062003 243.91310492 -49.17419434 251.46240234 C-49.46859657 252.73726124 -49.76299881 254.01212013 -50.06632233 255.32561111 C-50.63799453 257.80095313 -51.20976402 260.27627268 -51.7816391 262.75156784 C-53.2253808 269.00845843 -54.65565084 275.26801963 -56.06177139 281.53347301 C-56.78555735 284.75383803 -57.51823585 287.97213434 -58.25289154 291.19003487 C-58.56496365 292.56823632 -58.87262174 293.94744765 -59.17502594 295.32780266 C-62.25139041 309.36854739 -67.47043484 321.27816912 -79.9375 329.3125 C-90.57754229 335.16046218 -101.93196722 336.60887959 -113.75 333.8125 C-125.60953307 330.12665951 -134.21385463 322.85686774 -140 311.875 C-144.91794776 301.11181467 -145.56045865 290.31633847 -142.125 278.9375 C-140.59509982 275.17975513 -138.81104693 271.56667172 -137 267.9375 C-135.89710954 265.6849085 -134.79424629 263.43230368 -133.69140625 261.1796875 C-133.10066186 259.98132762 -132.50967576 258.78308687 -131.91845703 257.58496094 C-130.14462189 253.98481815 -128.39541707 250.37293216 -126.65234375 246.7578125 C-116.90194117 226.54729788 -107.01252935 206.40485478 -97.12948608 186.25897217 C-96.59304474 185.16546448 -96.05660339 184.07195679 -95.50390625 182.9453125 C-94.69912338 181.30480927 -94.69912338 181.30480927 -93.87808228 179.63116455 C-88.55539596 168.7794183 -83.24470191 157.92182585 -77.9375 147.0625 C-77.48961121 146.14609741 -77.04172241 145.22969482 -76.58026123 144.28552246 C-74.32889663 139.67903533 -72.07772416 135.07245435 -69.82666016 130.46582031 C-65.71931497 122.06070473 -61.61011701 113.65649496 -57.50109863 105.25219727 C-56.1305146 102.44877965 -54.76006136 99.64529814 -53.38964844 96.84179688 C-49.20152717 88.27420415 -45.01270682 79.7069563 -40.82060242 71.14131165 C-39.38521817 68.20821043 -37.95028013 65.27489123 -36.51538086 62.34155273 C-34.65217693 58.53285459 -32.78689013 54.72518681 -30.92016602 50.91821289 C-26.7581995 42.42319525 -22.62455806 33.91771219 -18.5859375 25.36328125 C-17.89268465 23.90209182 -17.19924993 22.44098867 -16.50561523 20.97998047 C-15.24900736 18.33289595 -14.00851763 15.67912329 -12.77758789 13.02001953 C-12.23094482 11.86743652 -11.68430176 10.71485352 -11.12109375 9.52734375 C-10.65888428 8.53597412 -10.1966748 7.54460449 -9.72045898 6.52319336 C-7.22885289 2.48515202 -4.87632627 -0.09752653 0 0 Z M-113.9375 276.625 C-118.21241808 281.14419912 -120.34590471 285.68191585 -120.625 291.9375 C-120.35965025 297.69558959 -118.61475494 302.18897839 -114.734375 306.47265625 C-110.50458822 310.29059537 -106.4127944 311.62952768 -100.875 312.375 C-94.98831378 311.68821994 -89.57475819 309.48770386 -85.41015625 305.15234375 C-81.26361514 299.49141371 -80.53488614 294.72380937 -81.125 287.9375 C-82.90421748 281.48783662 -86.55448764 277.4591968 -92.125 273.9375 C-100.21465625 270.64701281 -106.67338791 272.26653275 -113.9375 276.625 Z " fill="#001B2E" transform="translate(329.125,87.0625)"/>
<path d="M0 0 C4.47798261 0.51452583 6.78443121 2.10462685 10.1875 5 C11.16074219 5.82757813 12.13398438 6.65515625 13.13671875 7.5078125 C14.08160156 8.33023438 15.02648437 9.15265625 16 10 C17.12341797 10.95519531 17.12341797 10.95519531 18.26953125 11.9296875 C31.48981481 23.45981222 44.32414183 35.95340957 54.65917969 50.16308594 C56.13915443 52.19064055 57.65110983 54.19226119 59.1640625 56.1953125 C68.99941254 69.35492116 77.17332815 83.28098189 84.6875 97.875 C85.02692627 98.52291504 85.36635254 99.17083008 85.71606445 99.83837891 C87.52047491 103.44719982 88.14852117 106.00397209 88 110 C78.76314912 115.00354015 69.00276797 118.71179589 59.25 122.5625 C56.57436458 123.62308895 53.89914451 124.68472073 51.22395325 125.74642944 C49.42664035 126.45957798 47.62910407 127.17216376 45.8313446 127.88418579 C40.16748069 130.12977574 34.5183588 132.4087041 28.87890625 134.71484375 C26.8333823 135.54769276 24.78762857 136.37997494 22.74182129 137.21212769 C21.46498436 137.73354652 20.18932492 138.25785898 18.91491699 138.78518677 C17.16130286 139.51036532 15.40302025 140.22422384 13.64453125 140.9375 C12.66846924 141.33839844 11.69240723 141.73929688 10.68676758 142.15234375 C7.95946647 143.01278804 5.8393025 143.170455 3 143 C0.46125129 138.11262913 -1.74113658 133.25060143 -3.68652344 128.10083008 C-12.53223691 104.76462292 -26.06821115 85.05440531 -42.64453125 66.54492188 C-44.50618845 64.42306187 -46.26152024 62.22324815 -48 60 C-45.77787477 55.00399736 -42.96749716 51.34353386 -39.375 47.3125 C-38.2919911 46.07377074 -37.20996883 44.83417821 -36.12890625 43.59375 C-35.33057373 42.68109375 -35.33057373 42.68109375 -34.51611328 41.75 C-30.90835619 37.58568392 -27.46852124 33.28016789 -24 29 C-18.67027303 22.44107474 -13.28581881 15.93556637 -7.80517578 9.50244141 C-5.14695208 6.37782829 -2.54604212 3.21667793 0 0 Z " fill="#00A7D4" transform="translate(398,178)"/>
<path d="M0 0 C3.05028597 7.0595927 5.24710517 14.08034087 7 21.5625 C7.25418701 22.63443604 7.50837402 23.70637207 7.77026367 24.81079102 C11.92274673 42.8311243 15.14338618 61.34263054 15.16796875 79.875 C15.17296135 81.21171753 15.17296135 81.21171753 15.17805481 82.57543945 C15.18307297 84.43749481 15.18546474 86.29955899 15.18530273 88.16162109 C15.18751599 91.02065349 15.20579718 93.87931553 15.22460938 96.73828125 C15.227539 98.55468619 15.22952667 100.37109294 15.23046875 102.1875 C15.23765427 103.04263184 15.24483978 103.89776367 15.25224304 104.77880859 C15.22885941 110.77114059 15.22885941 110.77114059 13 113 C11.08284569 113.24609566 11.08284569 113.24609566 8.69735718 113.24050903 C7.34276146 113.24463303 7.34276146 113.24463303 5.96080017 113.24884033 C4.47079247 113.2380545 4.47079247 113.2380545 2.95068359 113.22705078 C1.38479744 113.22748886 1.38479744 113.22748886 -0.21272278 113.22793579 C-3.67575285 113.22653842 -7.13856984 113.21095797 -10.6015625 113.1953125 C-12.9976693 113.19158382 -15.39377761 113.18873617 -17.78988647 113.18673706 C-24.10612169 113.17908918 -30.42226538 113.15943077 -36.73846436 113.1373291 C-43.17979697 113.11689552 -49.62114433 113.10774067 -56.0625 113.09765625 C-68.70837245 113.07618598 -81.35418137 113.04241887 -94 113 C-93.84989326 111.5878839 -93.6978092 110.17597792 -93.54492188 108.76416016 C-93.460448 107.97788239 -93.37597412 107.19160461 -93.28894043 106.38150024 C-92.93204206 103.43987816 -92.41894421 100.54003108 -91.89526367 97.62451172 C-88.14591548 76.28634356 -88.8503361 55.33841963 -91.36425781 33.89257812 C-91.47350586 32.90193359 -91.58275391 31.91128906 -91.6953125 30.890625 C-91.80117676 29.99891602 -91.90704102 29.10720703 -92.01611328 28.18847656 C-92 26 -92 26 -90 24 C-87.39114682 23.1134917 -84.80593735 22.31818286 -82.15722656 21.56982422 C-81.34727234 21.33544647 -80.53731812 21.10106873 -79.70281982 20.85958862 C-77.01731121 20.08453944 -74.32912753 19.31928134 -71.640625 18.5546875 C-69.77445643 18.01980897 -67.90838921 17.48457674 -66.04241943 16.94900513 C-62.12619843 15.82668521 -58.20860918 14.70930404 -54.29003906 13.59521484 C-49.27241981 12.16813522 -44.25865622 10.72800964 -39.24588394 9.28400993 C-35.39043384 8.17513771 -31.53288252 7.07372666 -27.67467499 5.97449112 C-25.82565428 5.44662403 -23.97732316 4.91633517 -22.12970734 4.38357162 C-19.54203092 3.63852122 -16.95166027 2.90368809 -14.36035156 2.17138672 C-13.59960327 1.95011108 -12.83885498 1.72883545 -12.05505371 1.50085449 C-7.931419 0.34827311 -4.28113233 -0.23451252 0 0 Z " fill="#00A7D4" transform="translate(497,312)"/>
<path d="M0 0 C0.77214844 0.00902344 1.54429687 0.01804687 2.33984375 0.02734375 C2.90832031 0.03894531 3.47679687 0.05054687 4.0625 0.0625 C4.94993809 2.72481426 5.26738033 4.63237426 5.45141602 7.39111328 C5.51140274 8.2627713 5.57138947 9.13442932 5.63319397 10.03250122 C5.69365402 10.97310394 5.75411407 11.91370667 5.81640625 12.8828125 C5.88157944 13.85604462 5.94675262 14.82927673 6.01390076 15.83200073 C6.15108247 17.89470945 6.28628856 19.95755037 6.41967773 22.02050781 C6.62287135 25.15466672 6.8333985 28.2882685 7.04492188 31.421875 C7.17752534 33.42965836 7.30970026 35.43747007 7.44140625 37.4453125 C7.50389053 38.37376984 7.56637482 39.30222717 7.63075256 40.25881958 C7.79672085 42.85946484 7.93734511 45.45959319 8.0625 48.0625 C8.10986298 48.91745056 8.15722595 49.77240112 8.20602417 50.65325928 C8.28881836 53.10107422 8.28881836 53.10107422 8.0625 57.0625 C5.0231746 59.08871693 4.42928578 59.30735874 1.01953125 59.3359375 C0.20589111 59.35342041 -0.60774902 59.37090332 -1.44604492 59.38891602 C-2.77212769 59.41296509 -2.77212769 59.41296509 -4.125 59.4375 C-35.06295912 60.54999052 -65.01971512 69.40418136 -92.08984375 84.34765625 C-93.9375 85.0625 -93.9375 85.0625 -96.9375 84.0625 C-98.48828125 82.078125 -98.48828125 82.078125 -100.25 79.3125 C-102.96795161 75.07719571 -105.73120666 70.89827987 -108.609375 66.76953125 C-109.24963623 65.84043945 -109.88989746 64.91134766 -110.54956055 63.95410156 C-111.83974062 62.08270255 -113.14055917 60.21858915 -114.45239258 58.36230469 C-115.04689209 57.4912207 -115.6413916 56.62013672 -116.25390625 55.72265625 C-116.79474854 54.94543213 -117.33559082 54.16820801 -117.89282227 53.36743164 C-119.21756085 50.4445859 -119.00769627 49.05606902 -117.9375 46.0625 C-115.78309268 44.26211748 -113.80464295 42.83700644 -111.4375 41.375 C-110.76605957 40.94638672 -110.09461914 40.51777344 -109.40283203 40.07617188 C-107.2589903 38.71924734 -105.10014907 37.3892039 -102.9375 36.0625 C-102.26557617 35.64274902 -101.59365234 35.22299805 -100.90136719 34.79052734 C-72.55151611 17.13234365 -34.16192305 -0.52556805 0 0 Z " fill="#00A7D4" transform="translate(217.9375,127.9375)"/>
<path d="M0 0 C3.85495053 1.08852737 5.73743317 3.86651885 8.12890625 6.89453125 C9.17942022 8.17730227 10.23020817 9.45984895 11.28125 10.7421875 C11.81218262 11.39977051 12.34311523 12.05735352 12.89013672 12.73486328 C14.45866188 14.65173866 16.06520247 16.52598848 17.6953125 18.390625 C18.1991748 18.96981689 18.70303711 19.54900879 19.22216797 20.14575195 C20.18234694 21.24777192 21.14607426 22.34671294 22.11376953 23.44213867 C24.39199111 26.09411105 26.07283472 28.1739352 26.50390625 31.70703125 C21.83878365 35.93443864 17.12001749 40.03849877 12.19140625 43.95703125 C2.1402682 52.13851704 -6.60466101 61.43327919 -14.49609375 71.70703125 C-14.92776855 72.2676123 -15.35944336 72.82819336 -15.80419922 73.40576172 C-23.65407992 83.66327356 -30.56880139 94.33224886 -36.65625 105.7265625 C-37.00792236 106.37359131 -37.35959473 107.02062012 -37.72192383 107.68725586 C-38.68806896 109.47468193 -39.63188742 111.27412429 -40.57421875 113.07421875 C-42.49609375 115.70703125 -42.49609375 115.70703125 -44.81445312 116.46386719 C-49.53606065 116.89201004 -53.43197677 114.82851327 -57.74609375 113.08203125 C-59.13054688 112.56576172 -59.13054688 112.56576172 -60.54296875 112.0390625 C-61.8578125 111.51505859 -61.8578125 111.51505859 -63.19921875 110.98046875 C-64.00004883 110.66513184 -64.80087891 110.34979492 -65.62597656 110.02490234 C-67.49609375 108.70703125 -67.49609375 108.70703125 -68.37329102 106.39331055 C-68.51674862 103.25521111 -67.9309567 101.36173616 -66.7578125 98.453125 C-66.3551416 97.4439502 -65.9524707 96.43477539 -65.53759766 95.39501953 C-65.09077637 94.3223584 -64.64395508 93.24969727 -64.18359375 92.14453125 C-63.72645996 91.03062012 -63.26932617 89.91670898 -62.79833984 88.76904297 C-53.48487399 66.40713988 -41.9512402 45.43843721 -26.49609375 26.70703125 C-26.03235352 26.14177734 -25.56861328 25.57652344 -25.09082031 24.99414062 C-19.64617156 18.39655022 -13.99448096 11.99252459 -8.05859375 5.83203125 C-7.57471191 5.31374756 -7.09083008 4.79546387 -6.59228516 4.26147461 C-4.50789343 2.15208758 -2.87367154 0.81398208 0 0 Z " fill="#00A7D4" transform="translate(80.49609375,192.29296875)"/>
<path d="M0 0 C3.34983249 0.58432008 6.26548394 1.40600095 9.37109375 2.78515625 C10.18658691 3.14714111 11.00208008 3.50912598 11.84228516 3.88208008 C12.69870605 4.27161865 13.55512695 4.66115723 14.4375 5.0625 C15.31970215 5.46299561 16.2019043 5.86349121 17.11083984 6.27612305 C37.08829976 15.48156541 37.08829976 15.48156541 40.34155273 19.76733398 C41 22 41 22 39.92553711 24.62011719 C39.3197583 25.58594727 38.71397949 26.55177734 38.08984375 27.546875 C37.42968262 28.61099609 36.76952148 29.67511719 36.08935547 30.77148438 C35.39986816 31.83689453 34.71038086 32.90230469 34 34 C33.39687988 34.93650391 32.79375977 35.87300781 32.17236328 36.83789062 C30.32622875 39.65861129 28.44988447 42.45672787 26.5625 45.25 C25.16365337 47.32915188 23.76522926 49.40858808 22.3671875 51.48828125 C21.65272461 52.54998535 20.93826172 53.61168945 20.20214844 54.70556641 C17.94956924 58.07544486 15.72523711 61.46244022 13.5078125 64.85546875 C12.78392334 65.95793945 12.06003418 67.06041016 11.31420898 68.19628906 C9.91697247 70.32574744 8.52566427 72.45910973 7.14086914 74.59667969 C6.51043701 75.55348633 5.88000488 76.51029297 5.23046875 77.49609375 C4.67770264 78.34357178 4.12493652 79.1910498 3.55541992 80.06420898 C2 82 2 82 -1 83 C-3.50140482 81.77382116 -5.67657264 80.5063478 -8 79 C-8.74894531 78.57460937 -9.49789063 78.14921875 -10.26953125 77.7109375 C-11.00558594 77.24945313 -11.74164063 76.78796875 -12.5 76.3125 C-13.1909375 75.89613281 -13.881875 75.47976562 -14.59375 75.05078125 C-16.92369833 71.65293993 -15.64246982 67.87826782 -15 64 C-14.05039315 59.27236493 -12.96937912 54.57879536 -11.875 49.8828125 C-11.56453981 48.53531992 -11.25448838 47.18773311 -10.94482422 45.84005737 C-10.2989736 43.03392665 -9.64986215 40.22857927 -8.99804688 37.42382812 C-8.16297124 33.83036385 -7.33365512 30.23560258 -6.50643921 26.64032173 C-5.71459024 23.19986461 -4.91990256 19.76006514 -4.125 16.3203125 C-3.97415955 15.66649723 -3.82331909 15.01268196 -3.66790771 14.33905411 C-3.24111153 12.49146071 -2.8120153 10.64439909 -2.3828125 8.79736328 C-2.13934082 7.74751251 -1.89586914 6.69766174 -1.64501953 5.61599731 C-1 3 -1 3 0 0 Z " fill="#00A7D4" transform="translate(337,143)"/>
<path d="M0 0 C18.28157651 1.28157651 18.28157651 1.28157651 23 6 C22.67097097 11.63266359 21.01099789 17.0122879 19.57470703 22.44873047 C13.74023947 44.64970445 11.62419046 65.55539081 11.37744141 88.43115234 C11.36561325 89.24560822 11.3537851 90.06006409 11.34159851 90.89920044 C11.32001776 92.44652896 11.30666477 93.9939998 11.30256653 95.54147339 C11.2241978 100.7758022 11.2241978 100.7758022 9 103 C6.6875 103.30078125 6.6875 103.30078125 4 103.3125 C3.113125 103.32925781 2.22625 103.34601563 1.3125 103.36328125 C0.549375 103.24339844 -0.21375 103.12351562 -1 103 C-14.24343456 83.13484816 -7.91418537 33.64570076 -3.52880859 11.17382812 C-2.60249608 7.36593955 -1.33689812 3.68098083 0 0 Z " fill="#00A7D4" transform="translate(6,322)"/>
<path d="M0 0 C14.16433179 -0.57769933 27.9716105 1.18864202 42 3 C40.69565095 7.18237719 39.1136112 10.99897482 37.12890625 14.90234375 C36.55946289 16.02962891 35.99001953 17.15691406 35.40332031 18.31835938 C35.1028479 18.9089917 34.80237549 19.49962402 34.49279785 20.1081543 C32.90908907 23.22237287 31.3390205 26.34344033 29.76953125 29.46484375 C29.29373123 30.41053726 29.29373123 30.41053726 28.80831909 31.37533569 C24.40759863 40.14398687 20.20655109 49.00897486 16.01464844 57.87890625 C15.03280345 59.93142532 14.02395708 61.96821116 13 64 C11.10353002 63.88506243 9.20781668 63.75760358 7.3125 63.625 C6.25675781 63.55539063 5.20101562 63.48578125 4.11328125 63.4140625 C1.07836822 63.01042288 -1.19880453 62.18360372 -4 61 C-4.1552823 50.44943013 -3.74682248 39.94151449 -3.25537109 29.40454102 C-3.12415525 26.54408477 -3.0053879 23.68326646 -2.88671875 20.82226562 C-2.80284634 18.98694414 -2.71823746 17.15165613 -2.6328125 15.31640625 C-2.59938751 14.46945694 -2.56596252 13.62250763 -2.53152466 12.74989319 C-2.30250985 8.16586774 -1.7155169 4.31844531 0 0 Z " fill="#00A7D4" transform="translate(247,126)"/>
</svg>
