<svg width="50" height="50" viewBox="0 0 50 50" fill="none" xmlns="http://www.w3.org/2000/svg">
<path d="M25.0569 0H24.9431C11.1674 0 0 11.1674 0 24.9431V25.0569C0 38.8326 11.1674 50 24.9431 50H25.0569C38.8326 50 50 38.8326 50 25.0569V24.9431C50 11.1674 38.8326 0 25.0569 0Z" fill="#00A7D4"/>
<path d="M32.7365 10.1719H17.2651C12.9909 10.1719 9.51367 13.6491 9.51367 17.9233V32.0774C9.51367 36.3517 12.9909 39.8289 17.2651 39.8289H32.7365C37.0108 39.8289 40.488 36.3517 40.488 32.0774V17.9233C40.488 13.6491 37.0108 10.1719 32.7365 10.1719ZM12.2481 17.9233C12.2481 15.1573 14.4991 12.9063 17.2651 12.9063H32.7365C35.5025 12.9063 37.7535 15.1573 37.7535 17.9233V32.0774C37.7535 34.8434 35.5025 37.0944 32.7365 37.0944H17.2651C14.4991 37.0944 12.2481 34.8434 12.2481 32.0774V17.9233Z" fill="white"/>
<path d="M25.0007 32.2094C28.9754 32.2094 32.2109 28.9757 32.2109 24.9992C32.2109 21.0228 28.9772 17.7891 25.0007 17.7891C21.0243 17.7891 17.7905 21.0228 17.7905 24.9992C17.7905 28.9757 21.0243 32.2094 25.0007 32.2094ZM25.0007 20.5253C27.4689 20.5253 29.4764 22.5328 29.4764 25.001C29.4764 27.4692 27.4689 29.4767 25.0007 29.4767C22.5325 29.4767 20.525 27.4692 20.525 25.001C20.525 22.5328 22.5325 20.5253 25.0007 20.5253Z" fill="white"/>
<path d="M32.8787 18.9537C33.949 18.9537 34.8214 18.0831 34.8214 17.011C34.8214 15.939 33.9508 15.0684 32.8787 15.0684C31.8066 15.0684 30.936 15.939 30.936 17.011C30.936 18.0831 31.8066 18.9537 32.8787 18.9537Z" fill="white"/>
</svg>
