<svg width="40" height="41" viewBox="0 0 40 41" fill="none" xmlns="http://www.w3.org/2000/svg">
<path d="M29.9457 29.0939C30.2597 29.2868 30.634 29.3487 30.9912 29.267C31.3485 29.1852 31.6615 28.966 31.8657 28.6546C33.3666 26.3579 34.2032 23.673 34.279 20.9097C34.3549 18.1465 33.6668 15.4176 32.2943 13.038C32.1009 12.704 31.7859 12.4625 31.4188 12.3665C31.0516 12.2705 30.6623 12.328 30.3364 12.5262C30.0106 12.7245 29.7749 13.0473 29.6813 13.4236C29.5877 13.8 29.6437 14.1991 29.8371 14.533C30.9337 16.4361 31.4833 18.6181 31.4226 20.8274C31.362 23.0368 30.6935 25.1836 29.4943 27.0205C29.3861 27.1854 29.3117 27.3712 29.2758 27.5665C29.2399 27.7618 29.2432 27.9626 29.2854 28.1566C29.3277 28.3506 29.408 28.5337 29.5215 28.6949C29.635 28.856 29.7794 28.9918 29.9457 29.0939ZM9.34 29.3326C9.106 29.3329 8.87549 29.2744 8.66874 29.162C8.46199 29.0497 8.28533 28.887 8.15429 28.6883C6.5705 26.2829 5.71969 23.4495 5.70987 20.5476C5.70004 17.6457 6.53164 14.8063 8.09909 12.3897C9.66654 9.97319 11.8992 8.08851 14.5135 6.97494C17.1279 5.86138 20.0062 5.56915 22.7829 6.13536C22.9691 6.17023 23.1467 6.24269 23.3053 6.34852C23.464 6.45434 23.6005 6.59143 23.707 6.75182C23.8135 6.91221 23.8879 7.0927 23.9258 7.28279C23.9636 7.47289 23.9643 7.66881 23.9277 7.85916C23.891 8.04952 23.8179 8.23051 23.7124 8.39163C23.6069 8.55274 23.4713 8.69077 23.3133 8.79769C23.1554 8.90461 22.9783 8.97828 22.7923 9.01444C22.6063 9.05059 22.4152 9.0485 22.23 9.00829C20.5726 8.67246 18.8632 8.71706 17.2247 9.1389C15.5861 9.56074 14.059 10.3493 12.7531 11.448C11.4473 12.5467 10.395 13.9283 9.67199 15.4934C8.94897 17.0585 8.57311 18.7683 8.57143 20.5C8.56737 22.8343 9.24719 25.116 10.5229 27.0497C10.6677 27.2699 10.7513 27.5263 10.7649 27.7915C10.7785 28.0566 10.7215 28.3206 10.6 28.5551C10.4785 28.7896 10.297 28.9859 10.0751 29.1228C9.85316 29.2598 9.59906 29.3323 9.34 29.3326ZM27.8829 8.60414C27.6106 8.59839 27.3449 8.69003 27.1314 8.86332L25.6229 10.0963C24.7114 10.8386 23.4886 11.8417 22.24 12.8784C20.9914 13.9151 19.7114 14.9826 18.69 15.8611C18.18 16.3004 17.7286 16.6929 17.3757 17.0121C17.0936 17.2592 16.8251 17.5222 16.5714 17.7999C15.97 18.5277 15.6743 19.4701 15.7491 20.4208C15.8239 21.3715 16.2631 22.2532 16.9705 22.8728C17.678 23.4924 18.5961 23.7995 19.524 23.727C20.4518 23.6544 21.3139 23.208 21.9214 22.4856C22.1492 22.1855 22.3605 21.8726 22.5543 21.5484C22.8057 21.1414 23.1157 20.623 23.4571 20.0373C24.1429 18.8659 24.9729 17.4045 25.7757 15.9768C26.5786 14.5491 27.3586 13.1551 27.93 12.117L28.6214 10.8679L28.8814 10.3964C28.9816 10.2152 29.034 10.0104 29.0336 9.80219C29.0331 9.59394 28.9799 9.38938 28.879 9.20861C28.7781 9.02783 28.6332 8.87705 28.4583 8.77108C28.2834 8.6651 28.086 8.60757 27.8829 8.60414ZM20 0C8.95429 0 0 9.17814 0 20.5C0 31.8219 8.95429 41 20 41C31.0457 41 40 31.8219 40 20.5C40 9.17814 31.0457 0 20 0ZM2.85714 20.5C2.85714 10.7962 10.5329 2.92857 20 2.92857C29.4671 2.92857 37.1429 10.7962 37.1429 20.5C37.1429 30.2038 29.4671 38.0714 20 38.0714C10.5329 38.0714 2.85714 30.2038 2.85714 20.5Z" fill="#001B2E"/>
</svg>
