<svg width="40" height="40" viewBox="0 0 40 40" fill="none" xmlns="http://www.w3.org/2000/svg">
<path d="M23.3327 13.3333V18.3333M16.666 18.3333V13.3333" stroke="#00A7D4" stroke-width="3" stroke-linecap="round" stroke-linejoin="round"/>
<path d="M13.338 20.0449C13.263 19.1216 14.043 18.3333 15.033 18.3333H24.9663C25.9563 18.3333 26.7363 19.1216 26.6613 20.0449L26.4563 22.5666C26.3039 24.3963 25.6589 26.1506 24.5897 27.6433L23.923 28.5816C23.5978 29.0257 23.1715 29.386 22.6793 29.6326C22.1872 29.8793 21.6434 30.0052 21.093 29.9999H18.9063C18.3559 30.0052 17.8121 29.8793 17.32 29.6326C16.8279 29.386 16.4016 29.0257 16.0763 28.5816L15.4097 27.6433C14.3404 26.1506 13.6954 24.3963 13.543 22.5666L13.338 20.0449Z" stroke="#00A7D4" stroke-width="3"/>
<path d="M26.6663 35.3499C32.553 32.7732 36.6663 26.8866 36.6663 20.0366C36.6663 10.8116 29.2047 3.33325 19.9997 3.33325C10.7947 3.33325 3.33301 10.8116 3.33301 20.0366C3.33301 28.6999 9.91134 35.8216 18.3347 36.6599C19.2513 36.7499 19.9997 35.9932 19.9997 35.0716V30.0599" stroke="#00A7D4" stroke-width="3" stroke-linecap="round" stroke-linejoin="round"/>
</svg>
