<svg width="70" height="70" viewBox="0 0 70 70" fill="none" xmlns="http://www.w3.org/2000/svg">
<rect width="70" height="70" rx="8" fill="#00A7D4" fill-opacity="0.15"/>
<path d="M48.3346 31.6666C48.3346 42.4999 35.0013 51.6666 35.0013 51.6666C35.0013 51.6666 21.668 42.4999 21.668 31.6666C21.668 28.1304 23.0727 24.739 25.5732 22.2385C28.0737 19.738 31.4651 18.3333 35.0013 18.3333C38.5375 18.3333 41.9289 19.738 44.4294 22.2385C46.9299 24.739 48.3346 28.1304 48.3346 31.6666Z" stroke="#00A7D4" stroke-width="3"/>
<path d="M40 31.6665C40 32.9926 39.4732 34.2644 38.5355 35.202C37.5979 36.1397 36.3261 36.6665 35 36.6665C33.6739 36.6665 32.4021 36.1397 31.4645 35.202C30.5268 34.2644 30 32.9926 30 31.6665C30 30.3404 30.5268 29.0687 31.4645 28.131C32.4021 27.1933 33.6739 26.6665 35 26.6665C36.3261 26.6665 37.5979 27.1933 38.5355 28.131C39.4732 29.0687 40 30.3404 40 31.6665Z" stroke="#00A7D4" stroke-width="3"/>
</svg>
