<svg width="70" height="70" viewBox="0 0 70 70" fill="none" xmlns="http://www.w3.org/2000/svg">
<rect width="70" height="70" rx="8" fill="#00A7D4" fill-opacity="0.15"/>
<path d="M28.3346 20C29.168 20 32.5013 27.5 32.5013 28.3333C32.5013 30 30.0013 31.6667 29.168 33.3333C28.3346 35 30.0013 36.6667 31.668 38.3333C32.318 38.9833 35.0013 41.6667 36.668 40.8333C38.3346 40 40.0013 37.5 41.668 37.5C42.5013 37.5 50.0013 40.8333 50.0013 41.6667C50.0013 45 47.5013 47.5 45.0013 48.3333C42.5013 49.1667 40.8346 49.1667 37.5013 48.3333C34.168 47.5 31.668 46.6667 27.5013 42.5C23.3346 38.3333 22.5013 35.8333 21.668 32.5C20.8346 29.1667 20.8346 27.5 21.668 25C22.5013 22.5 25.0013 20 28.3346 20Z" stroke="#00A7D4" stroke-width="3" stroke-linecap="round" stroke-linejoin="round"/>
</svg>
