<svg width="40" height="40" viewBox="0 0 40 40" fill="none" xmlns="http://www.w3.org/2000/svg">
<path d="M20.9299 4.9701C20.3235 4.76486 19.6664 4.76486 19.0599 4.9701L7.76659 8.7951C7.39875 8.91459 7.07387 9.13902 6.83194 9.44076C6.59 9.74251 6.44158 10.1084 6.40492 10.4934C5.84325 17.5368 6.81825 22.7451 9.13325 26.6801C11.3733 30.4884 14.9566 33.2568 19.9949 35.3201C25.0383 33.2568 28.6249 30.4884 30.8649 26.6801C33.1816 22.7468 34.1566 17.5368 33.5949 10.4934C33.5583 10.1084 33.4098 9.74251 33.1679 9.44076C32.926 9.13902 32.6011 8.91459 32.2333 8.7951L20.9299 4.9701ZM18.2583 2.60343C19.3845 2.22163 20.605 2.22104 21.7316 2.60177L33.0349 6.42677C33.8652 6.70328 34.5964 7.21673 35.1384 7.90382C35.6803 8.59091 36.0094 9.42159 36.0849 10.2934C36.6733 17.6434 35.6849 23.4201 33.0199 27.9484C30.3466 32.4901 26.0849 35.6118 20.4533 37.8301C20.1587 37.9462 19.8311 37.9462 19.5366 37.8301C13.9099 35.6118 9.64992 32.4901 6.97825 27.9484C4.31492 23.4201 3.32659 17.6418 3.91325 10.2934C3.98879 9.42159 4.31783 8.59091 4.8598 7.90382C5.40177 7.21673 6.13297 6.70328 6.96325 6.42677L18.2583 2.60343Z" fill="#00A7D4"/>
<path opacity="0.5" d="M20 33.3333C28.3867 29.9333 32.3433 23.97 31.5717 12.7216C31.485 11.4433 30.6117 10.3616 29.4 9.93996L21.3667 7.14329C20.9272 6.9903 20.4653 6.91199 20 6.91162V33.3333Z" fill="#00A7D4"/>
</svg>
