<svg width="40" height="40" viewBox="0 0 40 40" fill="none" xmlns="http://www.w3.org/2000/svg">
<path d="M19.9997 3.3335C20.6252 3.3335 21.2419 3.36739 21.8497 3.43516C22.0672 3.45924 22.2779 3.52593 22.4697 3.63143C22.6615 3.73693 22.8306 3.87917 22.9674 4.05003C23.1042 4.22089 23.206 4.41702 23.2671 4.62723C23.3281 4.83744 23.3471 5.05761 23.323 5.27516C23.2989 5.49272 23.2322 5.7034 23.1267 5.89519C23.0212 6.08697 22.879 6.25609 22.7081 6.39291C22.5373 6.52972 22.3412 6.63154 22.1309 6.69255C21.9207 6.75356 21.7006 6.77257 21.483 6.7485C18.7364 6.44124 15.9622 6.99506 13.5441 8.33337C11.1261 9.67167 9.1836 11.7283 7.98545 14.2188C6.7873 16.7093 6.39268 19.5106 6.85616 22.2352C7.31964 24.9598 8.61832 27.473 10.5726 29.4273C12.5268 31.3815 15.0401 32.6802 17.7646 33.1437C20.4892 33.6072 23.2905 33.2125 25.781 32.0144C28.2715 30.8162 30.3282 28.8738 31.6665 26.4557C33.0048 24.0376 33.5586 21.2634 33.2513 18.5168C33.2273 18.2993 33.2463 18.0791 33.3073 17.8689C33.3683 17.6587 33.4701 17.4626 33.6069 17.2917C33.8832 16.9466 34.2853 16.7255 34.7247 16.6768C35.164 16.6282 35.6047 16.7561 35.9498 17.0324C36.1207 17.1692 36.2629 17.3384 36.3684 17.5301C36.4739 17.7219 36.5406 17.9326 36.5647 18.1502C36.6313 18.7579 36.6652 19.3746 36.6663 20.0002C36.6663 29.2052 29.2047 36.6668 19.9997 36.6668C10.7947 36.6668 3.33301 29.2052 3.33301 20.0002C3.33301 10.7952 10.7947 3.3335 19.9997 3.3335ZM19.9463 13.1285C20.0562 13.5564 19.9917 14.0103 19.767 14.3907C19.5423 14.771 19.1758 15.0466 18.748 15.1568C17.5728 15.4647 16.5497 16.1896 15.8697 17.1963C15.1897 18.2031 14.8993 19.4228 15.0525 20.628C15.2058 21.8332 15.7923 22.9414 16.7026 23.7459C17.6129 24.5504 18.7848 24.9962 19.9997 25.0002C21.1085 25.0006 22.1861 24.6325 23.0628 23.9537C23.9396 23.2748 24.5658 22.3238 24.843 21.2502C24.9611 20.8308 25.2388 20.4743 25.6166 20.2571C25.9943 20.04 26.4421 19.9794 26.864 20.0883C27.2859 20.1973 27.6483 20.4671 27.8737 20.84C28.0991 21.213 28.1694 21.6593 28.0697 22.0835C27.5584 24.0434 26.3511 25.7501 24.6733 26.8848C22.9955 28.0195 20.9619 28.5045 18.9526 28.2493C16.9433 27.9941 15.0956 27.0161 13.7547 25.4981C12.4138 23.98 11.6715 22.0256 11.6663 20.0002C11.6661 18.1525 12.2798 16.3571 13.4112 14.8963C14.5426 13.4355 16.1273 12.3921 17.9163 11.9302C18.1283 11.8755 18.349 11.8632 18.5657 11.8938C18.7825 11.9245 18.9911 11.9976 19.1796 12.1088C19.3681 12.2201 19.5328 12.3674 19.6644 12.5424C19.7959 12.7173 19.8918 12.9165 19.9463 13.1285ZM30.8397 3.54516C31.1439 3.67129 31.4039 3.88472 31.5869 4.15851C31.77 4.4323 31.8678 4.75417 31.868 5.0835V8.1335H34.9163C35.2459 8.13357 35.5681 8.23135 35.8421 8.41449C36.1161 8.59763 36.3297 8.85791 36.4558 9.16241C36.5819 9.4669 36.6149 9.80196 36.5506 10.1252C36.4864 10.4485 36.3277 10.7454 36.0947 10.9785L30.1997 16.8668C29.8872 17.1794 29.4633 17.3551 29.0213 17.3552H24.9997L21.953 20.4035C21.6403 20.7162 21.2161 20.8919 20.7738 20.8919C20.3316 20.8919 19.9074 20.7162 19.5947 20.4035C19.2819 20.0908 19.1062 19.6666 19.1062 19.2243C19.1062 18.7821 19.2819 18.3579 19.5947 18.0452L22.643 15.0002V10.9768C22.6431 10.5348 22.8188 10.111 23.1313 9.7985L29.023 3.90516C29.2561 3.67194 29.5531 3.51309 29.8765 3.44872C30.1998 3.38434 30.535 3.41732 30.8397 3.5435M28.5347 9.10516L25.9763 11.6668V14.0235H28.333L30.893 11.4652H30.2013C29.7593 11.4652 29.3354 11.2896 29.0228 10.977C28.7103 10.6644 28.5347 10.2405 28.5347 9.7985V9.10516Z" fill="#00A7D4"/>
</svg>
