<svg width="40" height="40" viewBox="0 0 40 40" fill="none" xmlns="http://www.w3.org/2000/svg">
<path d="M15.005 9.99988C15.005 8.67513 15.5313 7.40463 16.468 6.46788C17.4047 5.53114 18.6752 5.00488 20 5.00488C21.3248 5.00488 22.5953 5.53114 23.532 6.46788C24.4687 7.40463 24.995 8.67513 24.995 9.99988C24.995 11.3246 24.4687 12.5951 23.532 13.5319C22.5953 14.4686 21.3248 14.9949 20 14.9949C18.6752 14.9949 17.4047 14.4686 16.468 13.5319C15.5313 12.5951 15.005 11.3246 15.005 9.99988ZM20 7.50488C19.6724 7.50488 19.3479 7.56942 19.0452 7.6948C18.7425 7.82019 18.4675 8.00397 18.2358 8.23565C18.0041 8.46733 17.8203 8.74238 17.6949 9.04509C17.5695 9.3478 17.505 9.67223 17.505 9.99988C17.505 10.3275 17.5695 10.652 17.6949 10.9547C17.8203 11.2574 18.0041 11.5324 18.2358 11.7641C18.4675 11.9958 18.7425 12.1796 19.0452 12.305C19.3479 12.4303 19.6724 12.4949 20 12.4949C20.6617 12.4949 21.2963 12.232 21.7642 11.7641C22.2321 11.2962 22.495 10.6616 22.495 9.99988C22.495 9.33817 22.2321 8.70355 21.7642 8.23565C21.2963 7.76775 20.6617 7.50488 20 7.50488ZM27.5 11.2499C27.5 10.7574 27.597 10.2698 27.7855 9.81482C27.9739 9.35985 28.2501 8.94645 28.5983 8.59823C28.9466 8.25001 29.36 7.97379 29.8149 7.78533C30.2699 7.59688 30.7575 7.49988 31.25 7.49988C31.7425 7.49988 32.2301 7.59688 32.6851 7.78533C33.14 7.97379 33.5534 8.25001 33.9017 8.59823C34.2499 8.94645 34.5261 9.35985 34.7146 9.81482C34.903 10.2698 35 10.7574 35 11.2499C35 12.2444 34.6049 13.1983 33.9017 13.9015C33.1984 14.6048 32.2446 14.9999 31.25 14.9999C30.2554 14.9999 29.3016 14.6048 28.5983 13.9015C27.8951 13.1983 27.5 12.2444 27.5 11.2499ZM31.25 9.99988C30.9185 9.99988 30.6005 10.1316 30.3661 10.366C30.1317 10.6004 30 10.9184 30 11.2499C30 11.5814 30.1317 11.8993 30.3661 12.1338C30.6005 12.3682 30.9185 12.4999 31.25 12.4999C31.5815 12.4999 31.8995 12.3682 32.1339 12.1338C32.3683 11.8993 32.5 11.5814 32.5 11.2499C32.5 10.9184 32.3683 10.6004 32.1339 10.366C31.8995 10.1316 31.5815 9.99988 31.25 9.99988ZM8.75 7.49988C7.75544 7.49988 6.80161 7.89497 6.09835 8.59823C5.39509 9.30149 5 10.2553 5 11.2499C5 12.2444 5.39509 13.1983 6.09835 13.9015C6.80161 14.6048 7.75544 14.9999 8.75 14.9999C9.74456 14.9999 10.6984 14.6048 11.4017 13.9015C12.1049 13.1983 12.5 12.2444 12.5 11.2499C12.5 10.2553 12.1049 9.30149 11.4017 8.59823C10.6984 7.89497 9.74456 7.49988 8.75 7.49988ZM7.5 11.2499C7.5 10.9184 7.6317 10.6004 7.86612 10.366C8.10054 10.1316 8.41848 9.99988 8.75 9.99988C9.08152 9.99988 9.39946 10.1316 9.63388 10.366C9.8683 10.6004 10 10.9184 10 11.2499C10 11.5814 9.8683 11.8993 9.63388 12.1338C9.39946 12.3682 9.08152 12.4999 8.75 12.4999C8.41848 12.4999 8.10054 12.3682 7.86612 12.1338C7.6317 11.8993 7.5 11.5814 7.5 11.2499ZM10.67 17.4999C10.2311 18.26 10 19.1222 10 19.9999H5V26.2499C4.9998 26.8717 5.15424 27.4839 5.44942 28.0312C5.7446 28.5785 6.17125 29.0438 6.69097 29.3853C7.21069 29.7267 7.80716 29.9335 8.42669 29.9871C9.04622 30.0408 9.66935 29.9395 10.24 29.6924C10.425 30.5199 10.715 31.3099 11.09 32.0474C10.1412 32.4305 9.11277 32.5748 8.09514 32.4676C7.07751 32.3603 6.10177 32.0049 5.25361 31.4325C4.40544 30.86 3.7108 30.0881 3.23068 29.1845C2.75057 28.2808 2.49966 27.2731 2.5 26.2499V19.9999C2.5 19.3368 2.76339 18.701 3.23223 18.2321C3.70107 17.7633 4.33696 17.4999 5 17.4999H10.67ZM28.91 32.0474C29.8588 32.4305 30.8872 32.5748 31.9049 32.4676C32.9225 32.3603 33.8982 32.0049 34.7464 31.4325C35.5946 30.86 36.2892 30.0881 36.7693 29.1845C37.2494 28.2808 37.5003 27.2731 37.5 26.2499V19.9999C37.5 19.3368 37.2366 18.701 36.7678 18.2321C36.2989 17.7633 35.663 17.4999 35 17.4999H29.33C29.755 18.2349 30 19.0874 30 19.9999H35V26.2499C35.0002 26.8717 34.8458 27.4839 34.5506 28.0312C34.2554 28.5785 33.8288 29.0438 33.309 29.3853C32.7893 29.7267 32.1928 29.9335 31.5733 29.9871C30.9538 30.0408 30.3307 29.9395 29.76 29.6924C29.57 30.5224 29.2867 31.3074 28.91 32.0474ZM15 17.4974C14.337 17.4974 13.7011 17.7608 13.2322 18.2296C12.7634 18.6985 12.5 19.3343 12.5 19.9974V27.4999C12.5 29.489 13.2902 31.3967 14.6967 32.8032C16.1032 34.2097 18.0109 34.9999 20 34.9999C21.9891 34.9999 23.8968 34.2097 25.3033 32.8032C26.7098 31.3967 27.5 29.489 27.5 27.4999V19.9999C27.5 19.3368 27.2366 18.701 26.7678 18.2321C26.2989 17.7633 25.663 17.4999 25 17.4999L15 17.4974ZM15 19.9974H25V27.4999C25 28.826 24.4732 30.0977 23.5355 31.0354C22.5979 31.9731 21.3261 32.4999 20 32.4999C18.6739 32.4999 17.4021 31.9731 16.4645 31.0354C15.5268 30.0977 15 28.826 15 27.4999V19.9974Z" fill="#00A7D4"/>
</svg>
