<svg width="70" height="70" viewBox="0 0 70 70" fill="none" xmlns="http://www.w3.org/2000/svg">
<rect width="70" height="70" rx="8" fill="#00A7D4" fill-opacity="0.15"/>
<path d="M34.9987 18.3333C44.2037 18.3333 51.6654 25.7949 51.6654 34.9999C51.6654 44.2049 44.2037 51.6666 34.9987 51.6666C25.7937 51.6666 18.332 44.2049 18.332 34.9999C18.332 25.7949 25.7937 18.3333 34.9987 18.3333ZM34.9987 21.6666C31.4625 21.6666 28.0711 23.0713 25.5706 25.5718C23.0701 28.0723 21.6654 31.4637 21.6654 34.9999C21.6654 38.5361 23.0701 41.9275 25.5706 44.428C28.0711 46.9285 31.4625 48.3333 34.9987 48.3333C38.5349 48.3333 41.9263 46.9285 44.4268 44.428C46.9273 41.9275 48.332 38.5361 48.332 34.9999C48.332 31.4637 46.9273 28.0723 44.4268 25.5718C41.9263 23.0713 38.5349 21.6666 34.9987 21.6666ZM34.9987 24.9999C35.4069 25 35.8009 25.1498 36.106 25.4211C36.411 25.6924 36.6059 26.0662 36.6537 26.4716L36.6654 26.6666V34.3099L41.177 38.8216C41.4759 39.1215 41.6495 39.524 41.6624 39.9472C41.6753 40.3705 41.5267 40.7828 41.2466 41.1004C40.9666 41.418 40.5761 41.6171 40.1546 41.6572C39.733 41.6974 39.312 41.5756 38.977 41.3166L38.8204 41.1783L33.8204 36.1783C33.5613 35.919 33.395 35.5816 33.347 35.2183L33.332 34.9999V26.6666C33.332 26.2246 33.5076 25.8006 33.8202 25.4881C34.1327 25.1755 34.5567 24.9999 34.9987 24.9999Z" fill="#00A7D4"/>
</svg>
