<svg width="50" height="50" viewBox="0 0 50 50" fill="none" xmlns="http://www.w3.org/2000/svg">
<path d="M25.0569 0H24.9431C11.1674 0 0 11.1674 0 24.9431V25.0569C0 38.8326 11.1674 50 24.9431 50H25.0569C38.8326 50 50 38.8326 50 25.0569V24.9431C50 11.1674 38.8326 0 25.0569 0Z" fill="#00A7D4"/>
<path d="M29.8727 32.3129C23.4736 32.3129 18.2674 27.1049 18.2656 20.7058C18.2674 19.0837 19.5882 17.7646 21.2068 17.7646C21.3732 17.7646 21.5379 17.7787 21.6955 17.8067C22.0424 17.8645 22.3717 17.9819 22.6748 18.1588C22.7186 18.1851 22.7483 18.2271 22.7553 18.2762L23.4315 22.5381C23.4403 22.5872 23.4245 22.638 23.3912 22.6748C23.0181 23.0882 22.5416 23.386 22.0109 23.5349L21.7551 23.6067L21.8514 23.8537C22.7238 26.0749 24.5001 27.8494 26.723 28.7253L26.97 28.8234L27.0419 28.5677C27.1907 28.0369 27.4886 27.5604 27.902 27.1873C27.9317 27.1593 27.972 27.1452 28.0123 27.1452C28.0211 27.1452 28.0298 27.1452 28.0404 27.147L32.3023 27.8232C32.3531 27.8319 32.3952 27.8599 32.4215 27.9037C32.5966 28.2068 32.714 28.5379 32.7736 28.8847C32.8016 29.0389 32.8139 29.2018 32.8139 29.3717C32.8139 30.9921 31.4948 32.3111 29.8727 32.3129Z" fill="white"/>
<path d="M41.2203 23.5958C40.8752 19.6964 39.0884 16.0791 36.1893 13.4112C33.2726 10.7275 29.4889 9.24902 25.5317 9.24902C16.8465 9.24902 9.78001 16.3156 9.78001 25.0007C9.78001 27.9156 10.584 30.7552 12.1063 33.2286L8.71143 40.7436L19.581 39.5857C21.4711 40.36 23.4716 40.7524 25.5299 40.7524C26.0712 40.7524 26.6265 40.7243 27.1836 40.6665C27.6741 40.614 28.1698 40.5369 28.6568 40.4388C35.93 38.9691 41.2395 32.5139 41.2816 25.0848V25.0007C41.2816 24.5277 41.2606 24.0547 41.2185 23.5975L41.2203 23.5958ZM19.9997 36.2872L13.9859 36.9283L15.7815 32.9501L15.4224 32.4684C15.3961 32.4333 15.3698 32.3983 15.34 32.358C13.781 30.2051 12.9576 27.6616 12.9576 25.0024C12.9576 18.069 18.5983 12.4284 25.5317 12.4284C32.0271 12.4284 37.5329 17.4962 38.0636 23.9654C38.0917 24.3123 38.1074 24.6609 38.1074 25.0042C38.1074 25.1023 38.1057 25.1986 38.1039 25.302C37.9708 31.102 33.919 36.0279 28.2504 37.2822C27.8177 37.3785 27.3745 37.4521 26.9331 37.4994C26.4741 37.5519 26.0029 37.5782 25.5352 37.5782C23.8693 37.5782 22.2507 37.2559 20.7214 36.6183C20.5515 36.5499 20.385 36.4764 20.2291 36.401L20.0014 36.2907L19.9997 36.2872Z" fill="white"/>
</svg>
