<svg width="50" height="50" viewBox="0 0 50 50" fill="none" xmlns="http://www.w3.org/2000/svg">
<path d="M50 25C50 11.1929 38.8071 0 25 0C11.1929 0 0 11.1929 0 25C0 38.8071 11.1929 50 25 50C38.8071 50 50 38.8071 50 25Z" fill="#00A7D4"/>
<path d="M40.7421 19.819C40.5454 17.92 40.122 15.8207 38.5638 14.7175C37.3569 13.862 35.7706 13.8303 34.2897 13.8321C31.1592 13.8321 28.027 13.8374 24.8965 13.8391C21.8854 13.8426 18.8744 13.8444 15.8634 13.8479C14.6055 13.8479 13.3828 13.7513 12.2146 14.2959C11.2115 14.7632 10.4263 15.6521 9.95371 16.6411C9.29845 18.0166 9.16143 19.5748 9.08238 21.0962C8.93657 23.8665 8.95238 26.6439 9.1263 29.4125C9.25454 31.4328 9.57953 33.6656 11.1413 34.9532C12.5256 36.0934 14.479 36.1496 16.2744 36.1513C21.9732 36.1566 27.6738 36.1619 33.3744 36.1654C34.1052 36.1671 34.8677 36.1531 35.6125 36.0723C37.0776 35.9142 38.4742 35.4943 39.4158 34.4086C40.3662 33.3142 40.6104 31.7911 40.7545 30.3489C41.1058 26.8495 41.1023 23.3167 40.7421 19.819ZM21.6008 29.9044V20.0931L30.0964 24.9979L21.6008 29.9044Z" fill="white"/>
</svg>
